<svg xmlns="http://www.w3.org/2000/svg" viewBox="0 0 640 640" fill="none">
  <rect width="640" height="640" fill="#F3F6FB"/>
  <rect x="40" y="40" width="560" height="560" rx="32" fill="#FFFFFF"/>
  <circle cx="320" cy="242" r="116" fill="#D7DFEE"/>
  <path d="M232 374c26-24 59-36 88-36 29 0 62 12 88 36 28 27 44 65 44 104v46H188v-46c0-39 16-77 44-104z" fill="#C5D0E3"/>
  <path d="M268 244c0-39 23-83 65-83 54 0 74 47 74 88 0 54-31 95-79 95-37 0-60-28-60-100z" fill="#F4D5BF"/>
  <path d="M259 230c5-51 38-99 93-99 58 0 104 41 104 101 0 43-15 71-31 87-3-14-15-28-28-36-18 17-43 26-76 26-33 0-55-7-70-20-8 15-12 34-12 54-25-23-39-61-30-113 12 9 31 11 50 0z" fill="#5A3B2D"/>
  <rect x="160" y="548" width="320" height="18" rx="9" fill="#E7ECF5"/>
</svg>
