<svg xmlns="http://www.w3.org/2000/svg" viewBox="0 0 1200 700" fill="none">
  <defs>
    <linearGradient id="bg" x1="0" y1="0" x2="1" y2="1">
      <stop offset="0" stop-color="#f8fafc"/>
      <stop offset="1" stop-color="#dbeafe"/>
    </linearGradient>
  </defs>
  <rect width="1200" height="700" fill="url(#bg)"/>
  <rect x="90" y="70" width="1020" height="220" rx="20" fill="#ffffff" fill-opacity=".65"/>
  <rect x="420" y="120" width="360" height="150" rx="14" fill="#1e40af" fill-opacity=".18"/>
  <rect x="450" y="145" width="300" height="100" rx="10" fill="#e2e8f0"/>
  <ellipse cx="600" cy="475" rx="290" ry="95" fill="#475569"/>
  <ellipse cx="600" cy="455" rx="290" ry="95" fill="#cbd5e1"/>
  <g fill="#94a3b8">
    <rect x="180" y="370" width="70" height="130" rx="16"/>
    <rect x="285" y="352" width="70" height="148" rx="16"/>
    <rect x="845" y="352" width="70" height="148" rx="16"/>
    <rect x="950" y="370" width="70" height="130" rx="16"/>
  </g>
  <g fill="#64748b">
    <circle cx="215" cy="340" r="26"/>
    <circle cx="320" cy="322" r="26"/>
    <circle cx="880" cy="322" r="26"/>
    <circle cx="985" cy="340" r="26"/>
  </g>
  <rect x="0" y="610" width="1200" height="90" fill="#e2e8f0"/>
</svg>
